<svg id="Groupe_15783" data-name="Groupe 15783" xmlns="http://www.w3.org/2000/svg" width="30.186" height="30.186" viewBox="0 0 30.186 30.186">
  <circle id="Ellipse_179" data-name="Ellipse 179" cx="15.093" cy="15.093" r="15.093" transform="translate(0 0)" fill="#fff" opacity="0.15"/>
  <g id="Groupe_15765" data-name="Groupe 15765" transform="translate(8.499 10.193)">
    <g id="Groupe_15765-2" data-name="Groupe 15765">
      <path id="Tracé_47475" data-name="Tracé 47475" d="M56.139,240.089a4.146,4.146,0,0,1-1,.932,5.426,5.426,0,0,1-2.246,1,7.434,7.434,0,0,1-.827.079.428.428,0,0,1-.372-.2c-.3-.387-.607-.77-.907-1.158a.218.218,0,0,0-.227-.095,10.483,10.483,0,0,1-1.9.023,2.652,2.652,0,0,0-.336-.027.24.24,0,0,0-.153.087c-.307.382-.613.766-.91,1.156a.529.529,0,0,1-.482.219,5.245,5.245,0,0,1-3-1.111c-.3-.221-.567-.484-.846-.731a.38.38,0,0,1-.131-.339c.061-.56.107-1.122.19-1.679a15.852,15.852,0,0,1,.721-2.987,8.267,8.267,0,0,1,.781-1.667.7.7,0,0,1,.205-.21,7.547,7.547,0,0,1,2.466-1.069,5.24,5.24,0,0,1,.553-.075.4.4,0,0,1,.425.234c.186.358.375.713.558,1.072a.167.167,0,0,0,.176.111c.4-.007.8-.005,1.2,0a.15.15,0,0,0,.159-.1c.178-.352.367-.7.544-1.05a.446.446,0,0,1,.482-.27,5.8,5.8,0,0,1,2.121.655c.294.147.577.317.859.487a.657.657,0,0,1,.207.208,9.56,9.56,0,0,1,1.061,2.559,18.587,18.587,0,0,1,.557,2.958c.022.206.051.411.076.616Zm-4.551.4c.217.274.419.533.626.787a.154.154,0,0,0,.117.028c.146-.015.293-.031.437-.061a5.248,5.248,0,0,0,2.439-1.3.314.314,0,0,0,.122-.314c-.131-.825-.234-1.655-.395-2.474a10.73,10.73,0,0,0-.927-2.761,1.141,1.141,0,0,0-.56-.582c-.134-.059-.26-.139-.391-.206a5.68,5.68,0,0,0-1.549-.547c-.044-.008-.121,0-.135.023-.122.213-.233.432-.349.654.028.008.04.012.053.014a8.481,8.481,0,0,1,2.287.662.4.4,0,0,1,.229.533.391.391,0,0,1-.547.186,8.182,8.182,0,0,0-2.851-.684,9,9,0,0,0-4.308.685.486.486,0,0,1-.263.033.387.387,0,0,1-.071-.736c.466-.173.932-.346,1.407-.491.307-.094.629-.139.953-.209-.1-.2-.205-.385-.3-.58a.144.144,0,0,0-.19-.093,5.73,5.73,0,0,0-1.6.585c-.809.437-.647.235-1.034,1.079a15.337,15.337,0,0,0-1.173,5,.259.259,0,0,0,.076.174,2.987,2.987,0,0,0,.292.259,5.058,5.058,0,0,0,2.354,1.122c.351.059.35.064.57-.217l.1-.123.348-.441c-.243-.062-.465-.115-.685-.177a6.769,6.769,0,0,1-1.846-.819.406.406,0,0,1-.206-.428.4.4,0,0,1,.632-.235,7.317,7.317,0,0,0,3.341,1.037,9.79,9.79,0,0,0,1.95-.018,7.642,7.642,0,0,0,2.1-.492c.375-.154.729-.359,1.088-.548a.405.405,0,0,1,.542.11.387.387,0,0,1-.107.549c-.042.031-.086.058-.131.085A7.561,7.561,0,0,1,51.588,240.494Z" transform="translate(-42.797 -232.237)" fill="#ff725e"/>
      <path id="Tracé_47476" data-name="Tracé 47476" d="M315.172,369.983a1.654,1.654,0,0,1,.627-1.41,1.3,1.3,0,0,1,1.782.2,1.656,1.656,0,0,1-.026,2.187,1.33,1.33,0,0,1-2.215-.4A3.5,3.5,0,0,1,315.172,369.983Zm2.054-.126a2.631,2.631,0,0,0-.176-.477.537.537,0,0,0-.935-.019.891.891,0,0,0,0,.979.539.539,0,0,0,.943-.018A2.665,2.665,0,0,0,317.226,369.857Z" transform="translate(-308.062 -364.755)" fill="#ff725e"/>
      <path id="Tracé_47477" data-name="Tracé 47477" d="M176.737,370.063a1.55,1.55,0,0,1-.574,1.174,1.291,1.291,0,0,1-1.76-.087,1.649,1.649,0,0,1-.07-2.233,1.335,1.335,0,0,1,2.245.371A1.8,1.8,0,0,1,176.737,370.063Zm-2.013-.048a.762.762,0,0,0,.222.567.524.524,0,0,0,.765.008.87.87,0,0,0,.011-1.178.53.53,0,0,0-.776,0A.815.815,0,0,0,174.725,370.015Z" transform="translate(-170.508 -364.899)" fill="#ff725e"/>
    </g>
  </g>
</svg>
