<svg id="Groupe_15961" data-name="Groupe 15961" xmlns="http://www.w3.org/2000/svg" width="66.575" height="26.206" viewBox="0 0 66.575 26.206">
  <path id="Tracé_1" data-name="Tracé 1" d="M88.105,96.942a5.461,5.461,0,0,1,1.453,1.391l-1.453,1.154-.551.451a3.155,3.155,0,0,0-1.115-1,3.141,3.141,0,0,0-2.718-.125,3.172,3.172,0,0,0-1.678,1.678,3.044,3.044,0,0,0-.251,1.227v7.438h-2.58V95.981h2.58v.961a5.709,5.709,0,0,1,1.478-.708,5.689,5.689,0,0,1,3.357,0A5.715,5.715,0,0,1,88.105,96.942Z" transform="translate(-79.212 -87.134)"/>
  <path id="Tracé_2" data-name="Tracé 2" d="M153.437,95.81v13.227h-2.58V95.81Z" transform="translate(-138.842 -86.992)"/>
  <path id="Tracé_3" data-name="Tracé 3" d="M188.285,103.163a4.339,4.339,0,0,1,.551,1.09,3.42,3.42,0,0,1,.175,1.24,3.623,3.623,0,0,1-.376,1.528,4.185,4.185,0,0,1-.927,1.227,4.092,4.092,0,0,1-1.353.814,4.281,4.281,0,0,1-1.628.263,4.519,4.519,0,0,1-2.167-.626,3.838,3.838,0,0,1-1.466-1.528l2.154-1.5a1.4,1.4,0,0,0,.551.764,1.643,1.643,0,0,0,1,.313,1.668,1.668,0,0,0,1.14-.363,1.186,1.186,0,0,0,.489-.964.889.889,0,0,0-.025-.251v-.05a.2.2,0,0,1-.025-.088.207.207,0,0,0-.025-.088,1.461,1.461,0,0,0-.651-.7,1,1,0,0,0-.226-.1l.025-.025a8.549,8.549,0,0,0-.777-.388q-.426-.188-.864-.4t-.864-.451a4.751,4.751,0,0,1-.8-.564v-.025l-.075-.075a3.7,3.7,0,0,1-.827-1.165,3.131,3.131,0,0,1-.276-1.416,3.344,3.344,0,0,1,.351-1.4,3.689,3.689,0,0,1,.864-1.127,4.075,4.075,0,0,1,1.265-.752,4,4,0,0,1,1.553-.25,4.4,4.4,0,0,1,1.941.526A3.66,3.66,0,0,1,188.36,97.9l-2.1,1.453a1.277,1.277,0,0,0-.489-.476,1.471,1.471,0,0,0-.764-.2,1.521,1.521,0,0,0-.99.276.88.88,0,0,0-.413.726.428.428,0,0,0,.025.175.879.879,0,0,0,.251.476,1.527,1.527,0,0,0,.5.326q.475.276,1.09.563t1.24.639a3.887,3.887,0,0,1,.9.576l.125.125A5.134,5.134,0,0,1,188.285,103.163Z" transform="translate(-163.946 -87.231)"/>
  <path id="Tracé_4" data-name="Tracé 4" d="M246.2,95.81v13.227h-2.58V95.81Z" transform="translate(-216.048 -86.992)"/>
  <path id="Tracé_5" data-name="Tracé 5" d="M286.871,58.684a6.507,6.507,0,0,1-.513,2.58,6.6,6.6,0,0,1-3.52,3.52,6.739,6.739,0,0,1-5.16,0,6.6,6.6,0,0,1-3.52-3.52,6.74,6.74,0,0,1,0-5.161,6.6,6.6,0,0,1,3.52-3.52,6.505,6.505,0,0,1,2.58-.513,6.39,6.39,0,0,1,2.167.363,6.875,6.875,0,0,1,1.866,1.015V43.227h2.58V58.684Zm-6.6,4.033a3.945,3.945,0,0,0,1.56-.313,4.027,4.027,0,0,0,2.46-3.72v-.025a3.89,3.89,0,0,0-.312-1.553,4.064,4.064,0,0,0-.861-1.278,4.017,4.017,0,0,0-1.286-.864,4.047,4.047,0,0,0-3.122,0,4.021,4.021,0,0,0-1.286.864,4.209,4.209,0,0,0-.874,1.29,3.94,3.94,0,0,0,0,3.132,4.2,4.2,0,0,0,.874,1.29,4.01,4.01,0,0,0,1.286.864A3.945,3.945,0,0,0,280.27,62.717Z" transform="translate(-241.038 -43.227)"/>
  <path id="Tracé_6" data-name="Tracé 6" d="M369.884,95.81v13.227H367.3V95.81Z" transform="translate(-318.991 -86.992)"/>
  <path id="Tracé_7" data-name="Tracé 7" d="M403.942,95.81a6.5,6.5,0,0,1,2.58.513,6.6,6.6,0,0,1,3.52,3.52,6.739,6.739,0,0,1,0,5.16,6.6,6.6,0,0,1-3.52,3.52,6.739,6.739,0,0,1-5.16,0,6.6,6.6,0,0,1-3.52-3.52,6.74,6.74,0,0,1,0-5.16,6.6,6.6,0,0,1,3.52-3.52A6.5,6.5,0,0,1,403.942,95.81Zm.013,10.647a3.945,3.945,0,0,0,1.561-.313,4.037,4.037,0,0,0,0-7.44,4.047,4.047,0,0,0-3.122,0,4.026,4.026,0,0,0-1.286.864,4.206,4.206,0,0,0-.874,1.29,3.939,3.939,0,0,0,0,3.131,4.2,4.2,0,0,0,.874,1.29,4.009,4.009,0,0,0,1.286.864A3.944,3.944,0,0,0,403.955,106.457Z" transform="translate(-343.981 -86.992)"/>
  <circle id="Ellipse_1" data-name="Ellipse 1" cx="1.419" cy="1.419" r="1.419" transform="translate(11.885 4.625)" fill="#bc5258"/>
  <circle id="Ellipse_2" data-name="Ellipse 2" cx="1.419" cy="1.419" r="1.419" transform="translate(27.442 23.367)" fill="#77bbc0"/>
  <circle id="Ellipse_3" data-name="Ellipse 3" cx="1.419" cy="1.419" r="1.419" transform="translate(48.169 4.605)" fill="#d09c46"/>
</svg>
